<?xml version="1.0" encoding="utf-8"?>
<!-- Generator: Adobe Illustrator 16.0.0, SVG Export Plug-In . SVG Version: 6.00 Build 0)  -->
<!DOCTYPE svg PUBLIC "-//W3C//DTD SVG 1.1//EN" "http://www.w3.org/Graphics/SVG/1.1/DTD/svg11.dtd">
<svg version="1.1" id="Layer_1" xmlns="http://www.w3.org/2000/svg" xmlns:xlink="http://www.w3.org/1999/xlink" x="0px" y="0px"
	 width="213.012px" height="45px" viewBox="0 0 213.012 45" enable-background="new 0 0 213.012 45" xml:space="preserve">
<g>
	<g id="logo-seventh-branco" transform="translate(-330.643 -623.132)">
		<g id="Grupo_5" transform="translate(330.642 623.131)">
			<path id="Caminho_54_1_" fill="#FFFFFF" d="M19.337-2.255"/>
		</g>
	</g>
	<path id="Caminho_8" fill="#B9B057" d="M17.442,15.604l6.834-0.858l-5.067,0.635l3.429,3.7l5.169-0.884l1.349,1.324l-6.935,1.297
		L17.442,15.604z"/>
	<path id="Caminho_9" fill="#C2D7E7" d="M19.818,27.486l-0.957-1.179l1.79-5.389l-3.576-4.02l0.367-1.297l4.777,5.217L19.818,27.486
		z"/>
	<path id="Caminho_10" fill="#7383B1" d="M10.679,42.622L0,25.357L3.234,4.995l9.087,10.679l-1.937,7.498l4.434,5.95L10.679,42.622z
		"/>
	<path id="Caminho_11" fill="#8BAEC5" d="M22.219,20.821l6.933-1.297L27.141,24.3l1.422-3.38l-5.243,1.075l-1.836,5.098
		l-1.666,0.395L22.219,20.821z"/>
	<path id="Caminho_12" fill="#7383B1" d="M17.858,45l8.184-20.429l7.004-1.594l-3.062,6.761L23.197,31.7l2.844-7.129l20.967-3.626
		L36.891,37.627L17.858,45"/>
	<path id="Caminho_13" fill="#5F84B6" d="M23.32,21.997l11.223-2.278l-1.496,3.259l-7.006,1.594l-2.84,7.129l-3.751,1.103
		L23.32,21.997z"/>
	<path id="Caminho_14" fill="#6F98CB" d="M23.32,21.995l5.243-1.075l-1.422,3.38l-0.734,1.567l-1.003,0.297l1.077-0.248
		l-4.997,1.177L23.32,21.995z"/>
	<path id="Caminho_15" fill="#BFB666" d="M9.063,0.148l9.97,10.09l6.789-0.611l5.486,4.979l14.232-0.979L29.543,0L9.063,0.148z"/>
	<path id="Caminho_16" fill="#8CACC5" d="M18.861,26.313l-3.256-4.017l0.93,1.126l0.542-2.105l-0.903-1.08l0.903-3.331l3.578,4.019
		L18.861,26.313z"/>
	<path id="Caminho_17" fill="#5F84B6" d="M16.975,32.04l-6.613-8.892l1.936-7.494l3.846,4.532l0.905-3.31l3.576,3.994l-7.495-8.376
		l-2.768,10.677l4.434,5.95l1.739-5.68l-0.93-1.152l3.256,4.017L16.975,32.04z"/>
	<path id="Caminho_18" fill="#4A6097" d="M14.796,29.126l-4.434-5.95l1.96-7.499l3.846,4.559l0.905,1.076l-0.544,2.133
		L14.796,29.126z"/>
	<path id="Caminho_19" fill="#4A6097" d="M33.045,22.978l-3.062,6.76L23.197,31.7l2.842-7.131l1.102-0.271l-1.102,0.246
		l-0.635,1.617l0.635-1.594L33.045,22.978z"/>
	<path id="Caminho_20" fill="#C3BB73" d="M28.27,11.834l5.881,5.288l-11.513,1.963l0,0l-7.793-8.428l4.212-0.395l0,0l5.17,5.243
		l7.104-0.882l-0.589-0.541l-0.221-0.222l-2.229-2.01l0,0L28.27,11.834z"/>
	<path id="Caminho_21" fill="#B3AC51" d="M18.936,15.312l5.242-0.711l3.578,3.551l-5.12,1.03L18.936,15.312z"/>
	<path id="Caminho_22" fill="#B5A234" d="M19.01,10.24l6.81-0.613l5.512,4.997l-6.934,1.053L19.01,10.24z"/>
</g>
<g>
	<path id="Caminho_1" fill="#B5A234" d="M199.245,8.526l-0.79,8.421h5.408c6.246,0,9.31,0.911,9.142,2.704l-1.58,16.849h-8.065
		l1.581-16.727c0.047-0.479-0.91-0.74-2.824-0.74h-3.828l-1.651,17.441h-8.089l2.536-26.921"/>
	<path id="Caminho_2" fill="#B5A234" d="M184.242,8.5l-0.741,7.994h5.286l-0.382,4.021h-5.288l-0.789,8.472
		c-0.169,1.767,0.047,2.965,0.617,3.563c0.57,0.601,1.724,0.885,3.423,0.885c0.168,0.002,0.336-0.007,0.502-0.023
		c0.176-0.018,0.354-0.025,0.53-0.024l-0.286,3.086h-10.963c-1.269-1.075-1.795-2.895-1.557-5.455l0.982-10.503h-4.233l0.382-4.022
		h4.236l0.646-6.939"/>
	<path id="Caminho_3" fill="#2A4C85" d="M147.486,36.475l1.65-17.491c3.112-1.82,7.156-2.849,12.588-2.779
		c5.746,0,8.52,0.935,8.352,2.803l-1.65,17.468h-7.37l1.625-17.372c0.048-0.501-0.813-0.767-2.583-0.767h-3.519l-1.723,18.115h-7.37
		V36.475z"/>
	<path id="Caminho_4" fill="#2A4C85" d="M109.796,36.475l-5.671-20.271h7.707l3.016,12.998l5.454-12.998h7.682l-9.499,20.271
		H109.796z"/>
	<path id="Caminho_5" fill="#2A4C85" d="M147.102,25.418l-14.549,2.083c-0.98,5.746,3.95,9.212,10.624,6.771
		c1.115-0.411,2.162-0.984,3.112-1.697l-0.192,1.867c-0.776,0.829-1.691,1.518-2.703,2.031h-14.498
		c-0.542-0.352-1.05-0.761-1.506-1.22c-1.939-1.938-2.728-4.521-2.442-7.681c0.243-3.179,1.753-6.127,4.188-8.184
		c6.341-5.506,19.022-4.38,17.97,6.029H147.102z M139.059,23.553c0.367-0.005,0.729-0.071,1.077-0.191
		c0.199-0.175,0.313-0.43,0.311-0.694c0.454-4.861-6.982-4.211-7.538,1.435c-0.015,0.097-0.015,0.192,0,0.288L139.059,23.553z"/>
	<path id="Caminho_6" fill="#2A4C85" d="M104.796,25.467L90.3,27.524c-0.983,5.721,3.924,9.193,10.576,6.774
		c1.104-0.415,2.145-0.986,3.087-1.699l-0.193,1.865c-0.767,0.824-1.674,1.504-2.68,2.01H86.61c-0.543-0.354-1.049-0.763-1.507-1.22
		c-1.952-2.039-2.845-4.868-2.417-7.659c0.25-3.169,1.758-6.108,4.188-8.159C93.191,13.955,105.826,15.081,104.796,25.467
		L104.796,25.467z M96.752,23.604c0.359-0.004,0.715-0.07,1.053-0.193c0.201-0.176,0.314-0.431,0.311-0.693
		c0.455-4.834-6.964-4.189-7.514,1.436c-0.014,0.094-0.014,0.191,0,0.285L96.752,23.604z"/>
	<path id="Caminho_7" fill="#2A4C85" d="M70.003,10.42c5.91,0,11.678,2.274,11.314,7.395l0.003-0.004l-3.086,0.453
		c-0.171-1.678-1.156-3.161-2.632-3.974c-2.393-1.531-6.486-2.272-9.62-0.669c-1.674,0.836-1.961,2.705-0.765,3.686
		c5.388,4.26,17.851,4.07,16.655,11.938c-0.531,3.469-2.752,5.815-5.746,7.226H58.494c-0.502-0.216-1.005-0.43-1.484-0.669v0.023
		c-1.111-0.528-2.156-1.184-3.113-1.958c1.125-1.604,2.273-3.205,3.398-4.834h0.216c0.981,3.802,5.048,6.725,10.338,6.725
		c4.259,0,8.781-3.756,5.001-6.244c-5.432-3.589-16.871-4.093-15.77-11.316c0.387-2.581,2.078-4.78,4.475-5.815
		C64.177,11.07,67.071,10.399,70.003,10.42"/>
</g>
</svg>
